# xmcd
#
# Track frame offsets: 
#        150
#        13536
#        27000
#        40360
#
# Disc length: 689 seconds
#
# Revision: 0
# Processed by: cddbd v1.5.1PL0 Copyright (c) Steve Scherf et al.
# Submitted via: ExactAudioCopy v0.95a5
#
DISCID=2402af04
DTITLE=Rmxcrw - Turn Me On (Single)
DYEAR=2003
DGENRE=R&B
TTITLE0=Turn Me On - Original Version
TTITLE1=Turn Me On - Instrumental
TTITLE2=Turn Me On - Stage Version
TTITLE3=Turn Me On - Acapella
EXTD=
EXTT0=
EXTT1=
EXTT2=
EXTT3=
PLAYORDER=
